<svg xmlns="http://www.w3.org/2000/svg" width="134" height="51" fill="none"><path fill="#33386F" fill-rule="evenodd" d="M3.854 35.581c-.359.749-1.406.763-1.733 0-2.798-6.508-2.886-14.14.399-21.028C8.574 1.858 23.804-3.538 36.51 2.51c12.706 6.048 18.106 21.267 12.053 33.961-3.17 6.647-8.857 11.295-15.38 13.346-.805.253-1.477-.575-1.114-1.336l2.494-5.225c.275-.592-.025-1.112-.64-1.112-.613-.002-1.315.506-1.596 1.107l-3.36 7.042a.99.99 0 01-.786.56 25.29 25.29 0 01-1.07.09c-.74.047-1.23-.722-.91-1.39l6.98-14.627c.273-.59-.026-1.112-.64-1.112-.616 0-1.316.508-1.596 1.108l-7.327 15.346a.982.982 0 01-.997.56 25.604 25.604 0 01-.948-.126c-.648-.1-.996-.799-.714-1.39l11.07-23.205c.277-.592-.023-1.11-.637-1.112-.614 0-1.315.506-1.597 1.108L18.768 49.2a.982.982 0 01-1.19.52 27.335 27.335 0 01-.859-.3.976.976 0 01-.53-1.342L31.89 15.176c.274-.592-.025-1.112-.64-1.112-.614 0-1.315.506-1.596 1.107l-15.31 32.074a.979.979 0 01-1.362.444c-.263-.15-.523-.301-.779-.459a.98.98 0 01-.362-1.26l12.334-25.85c.276-.59-.023-1.11-.636-1.113-.614 0-1.316.508-1.598 1.11L10.337 44.424c-.277.583-1.025.758-1.512.335a24.444 24.444 0 01-.7-.629.984.984 0 01-.21-1.145l4.829-10.116c.274-.592-.025-1.112-.64-1.112-.612-.002-1.314.506-1.597 1.108L6.8 40.633c-.315.66-1.205.773-1.644.187a24.26 24.26 0 01-.614-.855.983.983 0 01-.072-.981l6.382-13.38c.277-.592-.023-1.11-.637-1.112-.616 0-1.315.506-1.596 1.108l-4.765 9.98zm84.937-14.695c0-.993-.21-1.684-.626-2.074a2.107 2.107 0 00-1.486-.584c-.595 0-1.097.207-1.502.62a2.028 2.028 0 00-.608 1.47v6.592c.81-.401 1.472-.803 1.986-1.204a7.542 7.542 0 001.27-1.24 4.44 4.44 0 00.769-1.63 8.697 8.697 0 00.197-1.95zm2.683 10.277c0 .686-.126 1.33-.376 1.933a4.907 4.907 0 01-1.037 1.576 4.9 4.9 0 01-1.558 1.063c-.595.26-1.24.39-1.93.39-.692 0-1.336-.13-1.933-.39a4.9 4.9 0 01-1.556-1.063 4.979 4.979 0 01-1.414-3.508V20.317c0-.685.132-1.328.395-1.93a5 5 0 011.072-1.578 5.082 5.082 0 011.593-1.063 4.902 4.902 0 011.95-.39c.69 0 1.34.123 1.95.373a4.682 4.682 0 011.591 1.062 5.008 5.008 0 011.074 1.683c.263.662.393 1.418.393 2.269 0 1.253-.119 2.31-.357 3.172a7.118 7.118 0 01-1.11 2.32c-.572.758-1.316 1.437-2.236 2.04-.919.601-2.058 1.245-3.416 1.93v.957c0 .592.184 1.087.554 1.489.37.401.852.603 1.45.603a1.89 1.89 0 001.43-.603c.382-.402.572-.897.572-1.489 0-.19.122-.358.304-.419l1.382-.456a.924.924 0 011.213.875zM75.195 18.228c-.596 0-1.096.207-1.503.62a2.033 2.033 0 00-.608 1.47v10.846c0 .591.204 1.086.608 1.488.407.401.907.603 1.503.603a2.07 2.07 0 001.485-.603 1.98 1.98 0 00.626-1.488c0-.191.123-.36.303-.42l1.382-.456a.924.924 0 011.214.876c0 .685-.132 1.329-.395 1.931a4.986 4.986 0 01-2.666 2.64 4.9 4.9 0 01-1.949.39c-.692 0-1.34-.13-1.95-.39a5.003 5.003 0 01-2.665-2.64 4.773 4.773 0 01-.394-1.93V20.317c0-.779.13-1.476.394-2.09a4.554 4.554 0 011.073-1.56 4.65 4.65 0 011.592-.974 5.56 5.56 0 011.95-.337c.692 0 1.342.118 1.95.354a4.87 4.87 0 011.592.993c.454.425.811.945 1.073 1.56.263.613.395 1.299.395 2.054 0 .47-.382.851-.852.851h-1.196a.851.851 0 01-.85-.85c0-.568-.21-1.057-.627-1.471a2.038 2.038 0 00-1.485-.62zm-9.373 16.984c0 .552.447.999 1 .999h.898a1 1 0 001-.999v-24.03a1 1 0 00-1-1h-.899a1 1 0 00-1 1v24.03zm64.644-9.118v-5.672c0-.59-.209-1.086-.625-1.488a2.075 2.075 0 00-1.486-.602c-.595 0-1.097.2-1.501.602a2.01 2.01 0 00-.61 1.488v5.672c0 .59.203 1.085.61 1.487.404.402.906.602 1.501.602.573 0 1.067-.2 1.486-.602.416-.402.625-.898.625-1.487zm2.898-7.798v7.798c0 1.345-.364 2.432-1.09 3.26-.728.826-1.915 1.31-3.561 1.453-.763.07-1.258.242-1.485.513-.226.272-.34.561-.34.868 0 .19.073.408.215.656.143.248.382.397.716.443h4.748a1 1 0 01.912 1.41l-.412.912a.999.999 0 01-.918.589l-5.117-.04c-1.431-.01-2.146.39-2.146 1.169 0 .78.715 1.17 2.146 1.17h2.962a.999.999 0 01.877 1.48l-.478.872c-.176.32-.345.518-.71.518h-2.484c-1.455 0-2.821-.365-3.763-1.097-.942-.733-1.413-1.702-1.413-2.907 0-.945.304-1.76.912-2.445.609-.686 1.413-1.158 2.416-1.418-.336-.118-.578-.307-.733-.568a1.619 1.619 0 01-.234-.85c0-.33.131-.65.395-.957.261-.306.666-.52 1.215-.637-1.765-.922-2.647-2.387-2.647-4.394v-5.672c0-.685.113-1.33.339-1.932a4.899 4.899 0 01.949-1.576 4.331 4.331 0 011.503-1.065c.596-.26 1.263-.389 2.002-.389.764 0 1.408.077 1.932.231.525.153.908.3 1.146.443h1.718a1 1 0 01.834 1.55l-.406.612zm-11.943-2.923c.406 0 .751.053 1.037.159l.131.052c.366.159.455.596.309.968l-.482 1.227c-.147.375-.592.464-.995.464a2.03 2.03 0 00-1.504.621 2.03 2.03 0 00-.606 1.47v14.862a1 1 0 01-1.001 1h-.898a1 1 0 01-1-1V16.549a1 1 0 011-.999h.324a1 1 0 01.888.54l.363.7c.168-.33.455-.65.86-.957.406-.307.93-.46 1.574-.46zm-9.375 5.55c0-.993-.209-1.684-.625-2.073a2.103 2.103 0 00-1.485-.585c-.596 0-1.098.206-1.502.62a2.026 2.026 0 00-.609 1.47v6.592c.811-.4 1.472-.803 1.986-1.204a7.5 7.5 0 001.27-1.24c.38-.52.637-1.064.768-1.63a8.71 8.71 0 00.197-1.95zm2.683 10.278a4.979 4.979 0 01-1.413 3.508 4.913 4.913 0 01-1.555 1.063c-.597.26-1.241.39-1.933.39-.691 0-1.335-.13-1.932-.39a4.902 4.902 0 01-1.555-1.063 4.979 4.979 0 01-1.414-3.509V20.357c0-.687.132-1.33.394-1.932a4.998 4.998 0 012.665-2.641 4.91 4.91 0 011.95-.39c.692 0 1.342.125 1.95.373a4.695 4.695 0 011.592 1.063c.452.46.811 1.022 1.073 1.683.263.662.393 1.418.393 2.269 0 1.252-.12 2.31-.358 3.172a7.066 7.066 0 01-1.108 2.321c-.573.756-1.319 1.436-2.237 2.038-.918.602-2.056 1.247-3.416 1.932v.957c0 .591.184 1.086.554 1.488.369.401.854.603 1.449.603.573 0 1.05-.202 1.431-.603.381-.402.573-.897.573-1.488 0-.19.121-.36.303-.42l1.383-.456a.922.922 0 011.211.876zM98.307 18.65c-.596 0-1.121.205-1.574.62-.452.412-.68.903-.68 1.47v10.526c0 .59.228 1.087.68 1.489.453.401.978.603 1.574.603.572 0 1.092-.202 1.556-.603.467-.402.698-.898.698-1.489V20.741c0-.567-.231-1.058-.698-1.47-.464-.415-.984-.62-1.556-.62zm5.153 12.616c0 .685-.12 1.329-.359 1.931a5.005 5.005 0 01-.984 1.578c-.417.45-.912.803-1.484 1.062a4.518 4.518 0 01-1.895.391c-.765 0-1.408-.119-1.933-.355-.524-.236-.883-.485-1.074-.745l-.347.517a1 1 0 01-.828.44h-.4c-.553 0-1-.447-1-.998V11.22c0-.43.276-.813.686-.948l.897-.297a1 1 0 011.314.95v5.847c.12-.26.43-.491.93-.692.502-.2 1.073-.301 1.717-.301.693 0 1.331.13 1.915.389a4.574 4.574 0 011.502 1.064 5 5 0 01.984 1.578c.239.601.359 1.245.359 1.93v10.527zm14.958 7.856c0 .299-.15.418-.624.418a6.66 6.66 0 01-.319-.01v-.845a9.22 9.22 0 01.35-.013c.38 0 .593.124.593.393v.057zm.881 2.173a.116.116 0 00-.015-.049l-.682-1.244c.33-.125.583-.413.583-.88v-.057c0-.78-.592-1.032-1.36-1.032a7.26 7.26 0 00-.915.057c-.141.023-.203.062-.203.212v2.958c0 .048.04.088.089.088h.588a.09.09 0 00.091-.088v-1.12c.084 0 .224.009.319.009l.05-.004.605 1.115c.022.044.041.088.091.088h.689c.051 0 .07-.022.07-.053zm-3.162-.057v-.411a.09.09 0 00-.09-.088h-.917c-.212 0-.289-.07-.289-.299v-.468h1.17a.09.09 0 00.091-.089v-.418a.09.09 0 00-.091-.087h-1.17v-.401c0-.23.077-.3.289-.3h.917a.09.09 0 00.09-.088v-.41c0-.057-.026-.08-.09-.089-.158-.022-.384-.057-.871-.057-.582 0-1.102.141-1.102.944v1.463c0 .802.514.947 1.098.947.487 0 .717-.035.875-.057.064-.01.09-.035.09-.092zm-2.375-2.627v-.455c0-.048-.045-.084-.095-.084h-2.239c-.05 0-.09.036-.09.084v.455c0 .048.04.083.09.083h.735v2.566c0 .048.042.088.092.088h.59a.09.09 0 00.091-.088v-2.566h.731c.05 0 .095-.035.095-.083zm-2.737 2.569v-3.024c0-.048-.039-.084-.09-.084h-.532c-.05 0-.09.036-.09.084v1.865c0 .03-.014.04-.023.04-.015 0-.019-.01-.036-.036l-1.069-1.816c-.056-.092-.101-.137-.192-.137h-.455a.17.17 0 00-.172.169v3.02a.09.09 0 00.091.087h.532a.09.09 0 00.091-.088v-1.786c0-.026.01-.035.023-.035s.022.01.04.035l1.029 1.737c.073.119.141.137.235.137h.442a.174.174 0 00.176-.168zm-3.227.058v-.411a.09.09 0 00-.091-.088h-.916c-.212 0-.289-.07-.289-.299v-.468h1.169a.09.09 0 00.091-.089v-.418a.09.09 0 00-.091-.087h-1.169v-.401c0-.23.077-.3.289-.3h.916a.09.09 0 00.091-.088v-.41c0-.057-.027-.08-.091-.089-.158-.022-.384-.057-.871-.057-.582 0-1.101.141-1.101.944v1.463c0 .802.514.947 1.096.947.488 0 .718-.035.876-.057.064-.01.091-.035.091-.092zm-2.551-.027v-.427c0-.054-.027-.089-.086-.089h-.014c-.171.013-.42.035-.667.035-.312 0-.561-.158-.561-.745v-.555c0-.587.249-.745.561-.745.247 0 .496.023.667.036h.014c.059 0 .086-.036.086-.088v-.428c0-.062-.037-.08-.1-.097a2.656 2.656 0 00-.673-.075c-.686 0-1.336.348-1.336 1.397v.555c0 1.05.65 1.402 1.336 1.402.316 0 .578-.044.673-.074.063-.018.1-.04.1-.102zm-4.696-1.269h-.672l.275-1.218c.009-.043.022-.065.062-.065.042 0 .051.022.06.066l.275 1.217zm1.089 1.334c0-.004-.005-.012-.005-.022l-.673-2.732c-.104-.422-.433-.489-.746-.489-.31 0-.645.067-.748.489l-.673 2.732c0 .01-.005.018-.005.023 0 .044.032.071.077.071h.632c.044 0 .08-.035.091-.08l.162-.722h.926l.162.721c.009.046.045.081.091.081h.631c.046 0 .078-.027.078-.072zm-3.252.01v-3.058c0-.093-.067-.156-.162-.156h-.424a.211.211 0 00-.2.12l-.69 1.256c-.018.035-.032.058-.05.058-.018 0-.03-.023-.05-.058l-.69-1.257a.212.212 0 00-.2-.119H95.5c-.095 0-.163.059-.163.15v3.063c0 .05.041.063.078.063h.596c.04 0 .071-.04.071-.088v-1.84c0-.03.014-.033.023-.033.013 0 .022.009.036.03l.407.728a.145.145 0 00.135.074h.36a.149.149 0 00.137-.074l.405-.728c.015-.021.023-.03.037-.03.01 0 .022.004.022.034v1.84c0 .047.032.087.073.087h.596c.036 0 .076-.013.076-.063zm-3.67-1.169v-1.961c0-.048-.046-.084-.095-.084h-.588c-.048 0-.09.036-.09.084v1.961c0 .45-.126.64-.532.64s-.529-.19-.529-.64v-1.961c0-.048-.04-.084-.09-.084h-.591c-.05 0-.09.036-.09.084v1.961c0 1.006.582 1.27 1.3 1.27.717 0 1.305-.264 1.305-1.27zm-3.992-.175h-.672l.276-1.218c.008-.043.022-.065.063-.065.04 0 .05.022.059.066l.274 1.217zm1.09 1.334c0-.004-.005-.012-.005-.022l-.674-2.732c-.105-.422-.433-.489-.744-.489-.312 0-.645.067-.75.489l-.673 2.732c0 .01-.005.018-.005.023 0 .044.033.071.077.071h.633a.095.095 0 00.09-.08l.162-.722h.926l.163.721a.093.093 0 00.09.081h.632c.044 0 .077-.027.077-.072zm-3.979-2.154c0 .299-.15.418-.622.418a5.77 5.77 0 01-.322-.01v-.845c.055-.004.288-.013.353-.013.379 0 .591.124.591.393v.057zm.88 2.173a.111.111 0 00-.013-.049l-.683-1.244c.33-.125.584-.413.584-.88v-.057c0-.78-.592-1.032-1.36-1.032-.325 0-.709.026-.916.057-.139.023-.204.062-.204.212v2.958a.09.09 0 00.09.088h.587c.05 0 .09-.04.09-.088v-1.12c.087 0 .227.009.323.009l.049-.004.605 1.115c.023.044.04.088.089.088h.691c.05 0 .067-.022.067-.053zm-3.02-2.684v-.455c0-.048-.046-.084-.095-.084h-2.24c-.05 0-.09.036-.09.084v.455c0 .048.04.083.09.083h.736v2.566a.09.09 0 00.09.088h.592c.05 0 .09-.04.09-.088v-2.566h.732c.049 0 .095-.035.095-.083zm-3.81 2.627v-.411a.09.09 0 00-.092-.088h-.776c-.213 0-.289-.07-.289-.299v-2.279a.09.09 0 00-.09-.089h-.59a.09.09 0 00-.091.09v2.278c0 .802.518.947 1.1.947.239 0 .587-.026.736-.057.064-.013.091-.035.091-.092zm-3.329-1.296h-.672l.276-1.218c.008-.043.022-.065.063-.065.04 0 .05.022.059.066l.274 1.217zm1.088 1.334c0-.004-.004-.012-.004-.022l-.673-2.732c-.104-.422-.433-.489-.744-.489-.312 0-.646.067-.75.489l-.673 2.732c0 .01-.005.018-.005.023 0 .044.031.071.078.071h.632c.045 0 .08-.035.089-.08l.163-.722h.927l.162.721c.008.046.044.081.09.081h.632c.045 0 .076-.027.076-.072zm-2.73-2.665v-.455c0-.048-.045-.084-.096-.084h-2.24c-.05 0-.09.036-.09.084v.455c0 .048.04.083.09.083h.736v2.566a.09.09 0 00.091.088h.591c.05 0 .092-.04.092-.088v-2.566h.73c.05 0 .095-.035.095-.083zm-2.737 2.569v-3.024c0-.048-.041-.084-.09-.084h-.533c-.05 0-.09.036-.09.084v1.865c0 .03-.014.04-.023.04-.013 0-.018-.01-.035-.036l-1.072-1.816c-.053-.092-.099-.137-.188-.137h-.457a.17.17 0 00-.172.169v3.02c0 .047.04.087.09.087h.534a.09.09 0 00.09-.088v-1.786c0-.026.008-.035.023-.035.014 0 .022.01.04.035l1.03 1.737c.072.119.14.137.235.137h.442a.174.174 0 00.176-.168zm-3.229.058v-.411a.09.09 0 00-.09-.088h-.916c-.212 0-.289-.07-.289-.299v-.468h1.17a.09.09 0 00.09-.089v-.418a.09.09 0 00-.09-.087h-1.17v-.401c0-.23.077-.3.288-.3h.918a.09.09 0 00.09-.088v-.41c0-.057-.028-.08-.09-.089-.159-.022-.385-.057-.872-.057-.583 0-1.102.141-1.102.944v1.463c0 .802.515.947 1.098.947.487 0 .717-.035.876-.057.062-.01.09-.035.09-.092zm-3.368-1.243c0 .594-.261.753-.668.753a5.21 5.21 0 01-.32-.009v-2.058c.063-.004.207-.009.32-.009.407 0 .668.16.668.754v.569zm.773 0v-.569c0-.93-.542-1.393-1.44-1.393a6.89 6.89 0 00-.963.067c-.086.013-.13.052-.13.154v2.913c0 .1.044.14.13.154.186.031.588.066.962.066.899 0 1.44-.463 1.44-1.392z" clip-rule="evenodd"/></svg>